<?xml version="1.0" standalone="no"?>
<!DOCTYPE svg PUBLIC "-//W3C//DTD SVG 1.1//EN" "http://www.w3.org/Graphics/SVG/1.1/DTD/svg11.dtd">
<svg width="100%" height="100%" viewBox="0 0 391 136" version="1.1" xmlns="http://www.w3.org/2000/svg" xmlns:xlink="http://www.w3.org/1999/xlink" xml:space="preserve" style="fill-rule:evenodd;clip-rule:evenodd;stroke-linejoin:round;stroke-miterlimit:10;">
    <g transform="matrix(1,0,0,1,1.36641,1.96973)">
        <path d="M16.435,66.376L369.903,66.377" style="fill:none;stroke-width:2px;stroke:black;"/>
    </g>
    <g transform="matrix(1,0,0,1,1.36641,1.96973)">
        <path d="M4.727,66.376C4.727,63.009 7.348,60.279 10.581,60.279C13.814,60.279 16.435,63.009 16.435,66.376C16.435,69.744 13.814,72.474 10.581,72.474C7.348,72.474 4.727,69.744 4.727,66.376Z" style="fill:black;"/>
    </g>
    <g transform="matrix(1,0,0,1,-0.633594,1.79521)">
        <text x="204.734px" y="53.162px" style="font-family:'Helvetica';font-size:12px;fill:black;">t</text>
        <text x="208.068px" y="57.158px" style="font-family:'Helvetica';font-size:6.996px;fill:black;">2</text>
    </g>
    <g transform="matrix(1,0,0,1,1.36641,0.383925)">
        <g transform="matrix(1,0,0,1,-0.399751,9.16617)">
            <text x="180.032px" y="15.764px" style="font-family:'Helvetica';font-size:12px;fill:black;">V</text>
            <text x="187.836px" y="15.764px" style="font-family:'Helvetica';font-size:12px;fill:black;">irus</text>
            <text x="210.306px" y="15.764px" style="font-family:'Helvetica';font-size:12px;fill:black;">T</text>
            <text x="216.286px" y="15.764px" style="font-family:'Helvetica';font-size:12px;fill:black;">est</text>
        </g>
        <g transform="matrix(1,0,0,1,-0.399751,9.16617)">
            <text x="199.032px" y="29.764px" style="font-family:'Helvetica';font-size:12px;fill:black;">(+)</text>
        </g>
    </g>
    <g transform="matrix(1,0,0,1,1.9875,-4.34082)">
        <text x="76.662px" y="129.228px" style="font-family:'Helvetica';font-size:12px;fill:black;">V</text>
        <text x="84.466px" y="129.228px" style="font-family:'Helvetica';font-size:12px;fill:black;">irus Exposure</text>
    </g>
    <g transform="matrix(1,0,0,1,1.26989,7.0414)">
        <text x="136.706px" y="54.836px" style="font-family:'Helvetica';font-size:12px;fill:black;">?</text>
    </g>
    <g transform="matrix(1,0,0,1,2.09928,-8.63319)">
        <text x="356.591px" y="92.659px" style="font-family:'Helvetica';font-size:12px;fill:black;">T</text>
        <text x="363.471px" y="92.659px" style="font-family:'Helvetica';font-size:12px;fill:black;">ime</text>
    </g>
    <g transform="matrix(1,0,0,1,1.36641,2.96973)">
        <path d="M206.488,59.081L206.488,71.276" style="fill:none;stroke-width:2px;stroke:black;"/>
    </g>
    <g transform="matrix(1,0,0,1,-108.556,1.79521)">
        <text x="204.734px" y="53.162px" style="font-family:'Helvetica';font-size:12px;fill:black;">t</text>
        <text x="208.068px" y="57.158px" style="font-family:'Helvetica';font-size:6.996px;fill:black;">1</text>
    </g>
    <g transform="matrix(1,0,0,1,-196.479,1.79521)">
        <text x="204.734px" y="53.162px" style="font-family:'Helvetica';font-size:12px;fill:black;">t</text>
        <text x="208.068px" y="57.158px" style="font-family:'Helvetica';font-size:6.996px;fill:black;">0</text>
    </g>
    <g transform="matrix(1,0,0,1,1.57638,-0.789198)">
        <g transform="matrix(1,0,0,1,-108.589,10.3393)">
            <text x="180.032px" y="15.764px" style="font-family:'Helvetica';font-size:12px;fill:black;">V</text>
            <text x="187.836px" y="15.764px" style="font-family:'Helvetica';font-size:12px;fill:black;">irus</text>
            <text x="210.306px" y="15.764px" style="font-family:'Helvetica';font-size:12px;fill:black;">T</text>
            <text x="216.286px" y="15.764px" style="font-family:'Helvetica';font-size:12px;fill:black;">est</text>
        </g>
        <g transform="matrix(1,0,0,1,-108.589,10.3393)">
            <text x="199.032px" y="29.764px" style="font-family:'Helvetica';font-size:12px;fill:black;">(-)</text>
        </g>
    </g>
    <g transform="matrix(1,0,0,1,-106.823,4.14285)">
        <path d="M206.488,59.081L206.488,71.276" style="fill:none;stroke-width:2px;stroke:black;"/>
    </g>
    <g transform="matrix(1,0,0,1,1.36641,1.96973)">
        <path d="M117.707,107.819L139.082,74.12" style="fill:none;stroke-width:2px;stroke:black;"/>
    </g>
    <g transform="matrix(1,0,0,1,1.36641,1.96973)">
        <path d="M140.145,72.444L132.453,76.424C131.963,76.677 131.771,77.281 132.024,77.771C132.278,78.262 132.882,78.454 133.372,78.2L138.019,75.796L137.825,81.024C137.804,81.576 138.235,82.04 138.787,82.06C139.339,82.081 139.803,81.65 139.823,81.098L140.145,72.444Z" style="fill:black;"/>
    </g>
</svg>
